<svg id="Group_90" data-name="Group 90" xmlns="http://www.w3.org/2000/svg" width="163.441" height="163.441" viewBox="0 0 163.441 163.441">
  <path id="Path_76" data-name="Path 76" d="M106.449,200.577a81.722,81.722,0,1,1-23.935,57.785A81.5,81.5,0,0,1,106.449,200.577Zm83.609,98.646a2.645,2.645,0,0,0,3.741,3.741l15.073-15.037a2.658,2.658,0,1,0-3.777-3.741l-1.889,1.852-7.01-7.01a35.575,35.575,0,0,0-11.259,11.3l7.01,7.01Zm-41.405-37.628,1.889,1.889,9.407-9.407a2.658,2.658,0,1,1,3.777,3.741l-9.407,9.407L158.06,271l9.407-9.407a2.671,2.671,0,0,1,3.777,3.777l-9.407,9.407,3.777,3.741,9.407-9.407a2.658,2.658,0,1,1,3.741,3.777l-9.407,9.407,5.049,5.012a44.408,44.408,0,0,0-3.85,9.3,2.689,2.689,0,0,0,1.852,3.305,2.651,2.651,0,0,0,3.269-1.852A40.983,40.983,0,0,1,203.932,269.8a2.657,2.657,0,1,0-1.417-5.121,44.408,44.408,0,0,0-9.3,3.85l-25.751-25.751a8,8,0,0,0-11.259,0l-7.555,7.518A8.046,8.046,0,0,0,148.653,261.595Zm-7.518-15.037,1.889,1.889,11.3-11.3-1.889-1.889a7.987,7.987,0,0,0-11.3,11.3Zm-21.5-29.056,16.054,16.054a12.912,12.912,0,0,1,1.707-2.07,15.429,15.429,0,0,1,2.07-1.671l-16.09-16.09a2.658,2.658,0,0,0-3.741,3.777Z" transform="translate(-82.514 -176.642)" fill="#1f4866"/>
</svg>
