<svg id="Group_92" data-name="Group 92" xmlns="http://www.w3.org/2000/svg" width="163.441" height="163.441" viewBox="0 0 163.441 163.441">
  <path id="Path_78" data-name="Path 78" d="M159.028,260.577a81.722,81.722,0,1,1-23.935,57.785A81.565,81.565,0,0,1,159.028,260.577Zm71.115,25.678a13.311,13.311,0,0,0-26.623,0v7.99h26.623Zm-10.5,77.507h23.971a2.666,2.666,0,0,0,2.651-2.651v-9.77l13.293-17.724a13.279,13.279,0,0,0,2.651-7.99V294.609a5.321,5.321,0,1,0-10.642,0v23.935a7.836,7.836,0,0,1-2.034,5.266v.036l-10.206,14.092a2.635,2.635,0,0,1-2.179,1.09,2.484,2.484,0,0,1-1.525-.509,2.663,2.663,0,0,1-.617-3.7l9.407-12.966a5.433,5.433,0,0,0-8.426-6.828l-12.422,13.693a15.016,15.016,0,0,0-3.923,10.061Zm10.5-56.224v-7.99H203.52v7.99a13.311,13.311,0,0,0,26.623,0Zm-58.73,18.088a13.316,13.316,0,0,0,2.688,7.99l13.293,17.724v9.77a2.666,2.666,0,0,0,2.651,2.651h23.9V338.7a14.775,14.775,0,0,0-3.923-10.061l-12.385-13.62a5.417,5.417,0,0,0-8.39,6.828l9.371,12.966a2.624,2.624,0,0,1-.581,3.7,2.513,2.513,0,0,1-1.562.509,2.617,2.617,0,0,1-2.143-1.09l-10.206-14.092a.036.036,0,0,1-.036-.036,8.017,8.017,0,0,1-2.034-5.266V294.609a5.321,5.321,0,1,0-10.642,0Z" transform="translate(-135.093 -236.642)" fill="#2b6793"/>
</svg>
