<svg id="Group_91" data-name="Group 91" xmlns="http://www.w3.org/2000/svg" width="163.441" height="163.441" viewBox="0 0 163.441 163.441">
  <path id="Path_77" data-name="Path 77" d="M106.449,395.577a81.722,81.722,0,1,1-23.935,57.785A81.437,81.437,0,0,1,106.449,395.577Zm45.037,94.251c3.45,2.906,7.119,5.956,11.005,9.262a2.6,2.6,0,0,0,3.45,0c3.886-3.305,7.555-6.356,11.005-9.262,12.022-10.024,21.683-17.942,27.24-26.187H190.675a2.642,2.642,0,0,1-2.579-2.034l-2.76-10.969-2.724,10.969a2.673,2.673,0,0,1-2.579,2.034H165.8l-4.722,14.129a2.662,2.662,0,0,1-5.048,0l-8.1-24.334-2.8,8.39a2.662,2.662,0,0,1-2.542,1.816H124.246C129.8,471.886,139.464,479.8,151.486,489.828ZM121.268,458.3H140.7l4.685-14.129c.726-2.179,4.322-2.179,5.048,0l8.136,24.334,2.8-8.39a2.65,2.65,0,0,1,2.506-1.816h14.056l4.831-19.25c.581-2.361,4.576-2.361,5.157,0l4.831,19.25h14.419a27.122,27.122,0,0,0,2.47-11.3c0-14.528-10.315-25.46-23.971-25.46-10.751,0-17.833,7.373-21.429,13.983-3.632-6.61-10.533-13.983-21.284-13.983-13.656,0-24.117,10.932-24.117,25.46A27.093,27.093,0,0,0,121.268,458.3Z" transform="translate(-82.514 -371.642)" fill="#70a6d9"/>
</svg>
