<svg id="Group_93" data-name="Group 93" xmlns="http://www.w3.org/2000/svg" width="163.441" height="163.441" viewBox="0 0 163.441 163.441">
  <path id="Path_79" data-name="Path 79" d="M159.028,335.577a81.722,81.722,0,1,1-23.935,57.785A81.437,81.437,0,0,1,159.028,335.577Zm37.482,8.753a7.992,7.992,0,0,0-7.518,5.3h15A7.981,7.981,0,0,0,196.51,344.33ZM209.8,363.108a7.983,7.983,0,0,0-7.99-7.954H191.171a7.983,7.983,0,0,0-7.99,7.954v2.651H209.8Zm0,7.99H183.181v13.293a8.014,8.014,0,0,0,7.99,7.99h10.642a8.014,8.014,0,0,0,7.99-7.99ZM188.52,397.684v2.688a2.666,2.666,0,0,0,2.651,2.651h10.642a2.643,2.643,0,0,0,2.651-2.651v-2.688Zm26.586-30.945v16.889a18.654,18.654,0,0,1,10.388,14.056h16.09A34.635,34.635,0,0,0,215.106,366.74Zm33.015,41.732a8.042,8.042,0,0,0-7.591-5.448H226.91a8.046,8.046,0,0,0-7.555,5.412l-1.743,5.23h32.252Zm-70.243,23.971a2.674,2.674,0,0,0,2.651,2.688h79.8a2.682,2.682,0,0,0,2.688-2.688,13.393,13.393,0,0,0-13.33-13.293H204.465v-5.484h7.99a2.67,2.67,0,0,0,0-5.339H180.53a2.67,2.67,0,0,0,0,5.339h7.99v5.775A13.314,13.314,0,0,0,177.878,432.443Z" transform="translate(-135.093 -311.642)" fill="#337bbc"/>
</svg>
